# xmcd
#
# Track frame offsets: 
#        150
#        9479
#        28041
#        49429
#        65475
#        84994
#        107845
#        121357
#        134818
#        145866
#        162360
#        190897
#        206223
#        218165
#
# Disc length: 3130 seconds
#
# Revision: 0
# Processed by: cddbd v1.5.1PL2 Copyright (c) Steve Scherf et al.
# Submitted via: ExactAudioCopy v0.90b4
#
DISCID=d50c380e
DTITLE=Doug And Jess Band - Slave To This World
DYEAR=2006
DGENRE=Bluegrass
TTITLE0=The Lover And The Oil Rig
TTITLE1=The Aggasiz
TTITLE2=Knockin'
TTITLE3=Eighth Deadly Sin
TTITLE4=Brownsville Streets
TTITLE5=Sun Goin' Down
TTITLE6=Crossroads Blues
TTITLE7=Milk And Honey
TTITLE8=Ungrateful Wives
TTITLE9=Oh Lord
TTITLE10=You Love Everybody
TTITLE11=I Set Out
TTITLE12=How Have You Been
TTITLE13=Slave To This World
EXTD=
EXTT0=
EXTT1=
EXTT2=
EXTT3=
EXTT4=
EXTT5=
EXTT6=
EXTT7=
EXTT8=
EXTT9=
EXTT10=
EXTT11=
EXTT12=
EXTT13=
PLAYORDER=
